<svg width="34" height="30" viewBox="0 0 34 30" fill="none" xmlns="http://www.w3.org/2000/svg">
<path d="M13.6 21.4286L22.423 15L13.6 8.57143V21.4286ZM33.252 4.65C33.473 5.65714 33.626 7.00714 33.728 8.72143C33.847 10.4357 33.898 11.9143 33.898 13.2L34 15C34 19.6929 33.728 23.1429 33.252 25.35C32.827 27.2786 31.841 28.5214 30.311 29.0571C29.512 29.3357 28.05 29.5286 25.806 29.6571C23.596 29.8071 21.573 29.8714 19.703 29.8714L17 30C9.877 30 5.44 29.6571 3.689 29.0571C2.159 28.5214 1.173 27.2786 0.748 25.35C0.527 24.3429 0.374 22.9929 0.272 21.2786C0.153 19.5643 0.102 18.0857 0.102 16.8L0 15C0 10.3071 0.272 6.85714 0.748 4.65C1.173 2.72143 2.159 1.47857 3.689 0.942857C4.488 0.664286 5.95 0.471429 8.194 0.342857C10.404 0.192857 12.427 0.128571 14.297 0.128571L17 0C24.123 0 28.56 0.342857 30.311 0.942857C31.841 1.47857 32.827 2.72143 33.252 4.65Z" fill="white"/>
</svg>
